<svg width="108" height="36" viewBox="0 0 108 36" fill="none" xmlns="http://www.w3.org/2000/svg">
<path d="M26.383 12.424H13.863V16.139H22.743C22.303 21.339 17.97 23.571 13.878 23.571C12.5817 23.5767 11.2972 23.3241 10.0996 22.8279C8.90193 22.3318 7.81514 21.602 6.90264 20.6812C5.99014 19.7604 5.27021 18.6671 4.78489 17.465C4.29958 16.2629 4.05859 14.9762 4.076 13.68C4.076 8.056 8.43 3.726 13.89 3.726C18.102 3.726 20.584 6.411 20.584 6.411L23.184 3.717C23.184 3.717 19.844 0 13.754 0C5.999 0 0 6.545 0 13.614C0 20.541 5.643 27.296 13.95 27.296C21.257 27.296 26.606 22.29 26.606 14.888C26.606 13.326 26.379 12.424 26.379 12.424H26.383Z" fill="#4885ED"/>
<path d="M36.64 9.73342C31.502 9.73342 27.82 13.7504 27.82 18.4334C27.82 23.1874 31.39 27.2784 36.7 27.2784C41.506 27.2784 45.443 23.6054 45.443 18.5354C45.443 12.7354 40.863 9.73342 36.64 9.73342ZM36.69 13.1794C39.216 13.1794 41.61 15.2224 41.61 18.5134C41.61 21.7334 39.226 23.8354 36.678 23.8354C33.878 23.8354 31.678 21.5934 31.678 18.4874C31.678 15.4474 33.858 13.1794 36.698 13.1794H36.69Z" fill="#DB3236"/>
<path d="M55.821 9.73342C50.683 9.73342 47.001 13.7504 47.001 18.4334C47.001 23.1874 50.571 27.2784 55.881 27.2784C60.687 27.2784 64.624 23.6054 64.624 18.5354C64.624 12.7354 60.044 9.73342 55.821 9.73342ZM55.871 13.1794C58.397 13.1794 60.791 15.2224 60.791 18.5134C60.791 21.7334 58.407 23.8354 55.859 23.8354C53.059 23.8354 50.859 21.5934 50.859 18.4874C50.859 15.4474 53.039 13.1794 55.879 13.1794H55.871Z" fill="#F4C20D"/>
<path d="M74.634 9.74414C69.918 9.74414 66.212 13.8741 66.212 18.5101C66.212 23.7901 70.509 27.2921 74.552 27.2921C77.052 27.2921 78.382 26.2991 79.352 25.1601V26.8901C79.352 29.9171 77.514 31.7301 74.74 31.7301C72.06 31.7301 70.716 29.7371 70.24 28.6071L66.868 30.0071C68.064 32.5371 70.472 35.1741 74.768 35.1741C79.468 35.1741 83.03 32.2211 83.03 26.0271V10.2711H79.366V11.7571C78.236 10.5371 76.688 9.74414 74.636 9.74414H74.634ZM74.974 13.1841C77.286 13.1841 79.66 15.1581 79.66 18.5291C79.66 21.9561 77.29 23.8441 74.923 23.8441C72.409 23.8441 70.07 21.8041 70.07 18.5611C70.07 15.1931 72.5 13.1841 74.974 13.1841Z" fill="#4885ED"/>
<path d="M99.406 9.72266C94.958 9.72266 91.223 13.2627 91.223 18.4827C91.223 24.0087 95.386 27.2857 99.823 27.2857C103.535 27.2857 105.823 25.2557 107.173 23.4357L104.14 21.4177C103.353 22.6377 102.037 23.8327 99.842 23.8327C97.376 23.8327 96.242 22.4827 95.539 21.1727L107.302 16.2927L106.702 14.8627C105.566 12.0627 102.914 9.72266 99.406 9.72266ZM99.559 13.0967C101.162 13.0967 102.315 13.9487 102.805 14.9707L94.949 18.2537C94.609 15.7117 97.019 13.0967 99.549 13.0967H99.559Z" fill="#DB3236"/>
<path d="M85.606 26.7652H89.47V0.908203H85.606V26.7652Z" fill="#3CBA54"/>
</svg>
